#File written by RizomUV 2022.0.11.g5424fda. Compilation :Nov 24 2021,04:16:21
mtllib 
#begin vertices
v 0.393088 0.205515 0.400465
v 0.393088 5e-05 -0.001287
v 0.393088 0.176557 -0.001287
v 0.393088 0.109123 0.310477
v 0.393088 0.049561 0.215684
v 0.393088 0.012585 0.110013
v 0.393088 0.185163 0.087827
v 0.393088 0.210551 0.172435
v 0.393088 0.251446 0.248334
v 0.393088 0.311673 0.320384
v -0.007615 5e-05 0.401326
v 0.304148 0.109123 0.401326
v 0.209355 0.049561 0.401326
v 0.103684 0.012585 0.401326
v -0.007615 0.176557 0.401326
v 0.081499 0.185163 0.401326
v 0.166106 0.210551 0.401326
v 0.242005 0.251446 0.401326
v 0.314055 0.311673 0.401326
v -0.408319 0.205515 0.400465
v -0.408319 5e-05 -0.001287
v -0.408319 0.176557 -0.001287
v -0.408319 0.109123 0.310477
v -0.408319 0.049561 0.215684
v -0.408319 0.012585 0.110013
v -0.408319 0.185163 0.087827
v -0.408319 0.210551 0.172435
v -0.408319 0.251446 0.248334
v -0.408319 0.311673 0.320384
v -0.319379 0.109123 0.401326
v -0.224586 0.049561 0.401326
v -0.118915 0.012585 0.401326
v -0.09673 0.185163 0.401326
v -0.181337 0.210551 0.401326
v -0.257236 0.251446 0.401326
v -0.329286 0.311673 0.401326
v 0.393088 0.205515 -0.403039
v 0.393088 0.109123 -0.31305
v 0.393088 0.049561 -0.218257
v 0.393088 0.012585 -0.112586
v 0.393088 0.185163 -0.090401
v 0.393088 0.210551 -0.175008
v 0.393088 0.251446 -0.250907
v 0.393088 0.311673 -0.322958
v -0.007615 5e-05 -0.4039
v 0.304148 0.109123 -0.4039
v 0.209355 0.049561 -0.4039
v 0.103684 0.012585 -0.4039
v -0.007615 0.176557 -0.4039
v 0.081499 0.185163 -0.4039
v 0.166106 0.210551 -0.4039
v 0.242005 0.251446 -0.4039
v 0.314055 0.311673 -0.4039
v -0.408319 0.205515 -0.403039
v -0.408319 0.109123 -0.31305
v -0.408319 0.049561 -0.218257
v -0.408319 0.012585 -0.112586
v -0.408319 0.185163 -0.090401
v -0.408319 0.210551 -0.175008
v -0.408319 0.251446 -0.250907
v -0.408319 0.311673 -0.322958
v -0.319379 0.109123 -0.4039
v -0.224586 0.049561 -0.4039
v -0.118915 0.012585 -0.4039
v -0.09673 0.185163 -0.4039
v -0.181337 0.210551 -0.4039
v -0.257236 0.251446 -0.4039
v -0.329286 0.311673 -0.4039
#end vertices

#begin 68 textures vertices 
vt 0.1356283 0.7774987 0
vt 0.4461598 0.9960938 0
vt 0.4585177 0.8696145 0
vt 0.187629 0.8826648 0
vt 0.2636114 0.9425148 0
vt 0.3519115 0.9794976 0
vt 0.3858895 0.8579522 0
vt 0.3204337 0.8343245 0
vt 0.26968 0.7997475 0
vt 0.2471885 0.7512471 0
vt 0.00390625 0.460162 0
vt 0.05367501 0.6951702 0
vt 0.01892989 0.6169554 0
vt 0.00390625 0.5383831 0
vt 0.1531629 0.471823 0
vt 0.1499157 0.5395881 0
vt 0.1567865 0.6046676 0
vt 0.1755845 0.6619316 0
vt 0.2148949 0.705669 0
vt 0.2021267 0.1691904 0
vt 0.5538493 0.00390625 0
vt 0.5414883 0.1303942 0
vt 0.2775967 0.07637078 0
vt 0.364044 0.02997337 0
vt 0.4578265 0.006684972 0
vt 0.467499 0.1316457 0
vt 0.3978661 0.1454677 0
vt 0.3397816 0.1716417 0
vt 0.3049406 0.2147854 0
vt 0.1030044 0.2362495 0
vt 0.05161864 0.3078378 0
vt 0.02015481 0.3830326 0
vt 0.1640386 0.4048158 0
vt 0.1845652 0.3422249 0
vt 0.2155893 0.2895328 0
vt 0.2628005 0.2521468 0
vt 0.7978241 0.8309201 0
vt 0.7223403 0.9237106 0
vt 0.6358994 0.9700733 0
vt 0.5421428 0.9933314 0
vt 0.5324969 0.8683669 0
vt 0.6021197 0.8545633 0
vt 0.6601981 0.8284105 0
vt 0.6950431 0.7852821 0
vt 0.9960807 0.5400112 0
vt 0.8969456 0.7638963 0
vt 0.9483432 0.692323 0
vt 0.9798196 0.617136 0
vt 0.8468292 0.5283005 0
vt 0.8359485 0.5953051 0
vt 0.8154181 0.6578898 0
vt 0.7843931 0.710571 0
vt 0.7371842 0.7479396 0
vt 0.864409 0.2226213 0
vt 0.812429 0.1174301 0
vt 0.7364493 0.05754453 0
vt 0.6481312 0.02052669 0
vt 0.6141257 0.1420635 0
vt 0.6795863 0.1657117 0
vt 0.7303414 0.2003103 0
vt 0.7528266 0.2488246 0
vt 0.9463544 0.3049838 0
vt 0.9810842 0.3832108 0
vt 0.9960938 0.4617882 0
vt 0.8500819 0.460534 0
vt 0.8432165 0.3954494 0
vt 0.8244224 0.3381753 0
vt 0.7851137 0.2944203 0
#end 68 textures vertices 

#begin 68 normals 
vn -1 0 0
vn -1 0 0
vn -1 0 0
vn -1 0 0
vn -1 -0 0
vn -1 -0 0
vn -1 0 0
vn -1 0 0
vn -0.708411 -0.063109 -0.702973
vn -0.979305 -0.121883 -0.161574
vn -0 0 -1
vn -0 0 -1
vn 0 0 -1
vn 0 0 -1
vn 0 0 -1
vn 0 0 -1
vn -0.003112 0.000152 -0.999995
vn -0.002254 0.00011 -0.999997
vn -0.173088 -0.123904 -0.977081
vn 1 0 0
vn 1 0 0
vn 1 0 0
vn 1 0 0
vn 1 0 0
vn 1 0 0
vn 1 0 0
vn 1 0 0
vn 0.979305 -0.121884 -0.161574
vn 0.708411 -0.063109 -0.702974
vn -1e-06 0 -1
vn -1e-06 0 -1
vn -1e-06 0 -1
vn -1e-06 0 -1
vn 0.002253 0.00011 -0.999997
vn 0.003111 0.000152 -0.999995
vn 0.173088 -0.123905 -0.977082
vn -1 -0 0
vn -1 -0 0
vn -1 -0 0
vn -1 -0 0
vn -1 0 0
vn -1 0 0
vn -0.979305 -0.121883 0.161574
vn -0.708411 -0.063109 0.702973
vn 0 0 1
vn 0 0 1
vn -0 0 1
vn 0 0 1
vn -0 0 1
vn 0 0 1
vn -0.002252 0.00011 0.999997
vn -0.00311 0.000152 0.999995
vn -0.173088 -0.123904 0.977082
vn 1 0 0
vn 1 0 0
vn 1 0 0
vn 1 0 0
vn 1 0 0
vn 1 0 0
vn 0.70841 -0.063109 0.702974
vn 0.979305 -0.121883 0.161574
vn 0 0 1
vn 0 0 1
vn 0 0 1
vn 0 0 1
vn 0.003109 0.000152 0.999995
vn 0.002251 0.00011 0.999997
vn 0.173087 -0.123905 0.977082
#end 68 normals 

#begin 36 faces
s 1
f 2/2/1 6/6/2 7/7/3 3/3/4 
f 6/6/2 5/5/5 8/8/6 7/7/3 
f 5/5/5 4/4/7 9/9/8 8/8/6 
f 4/4/7 1/1/9 10/10/10 9/9/8 
f 11/11/11 15/15/12 16/16/13 14/14/14 
f 14/14/14 16/16/13 17/17/15 13/13/16 
f 13/13/16 17/17/15 18/18/17 12/12/18 
f 12/12/18 18/18/17 19/19/19 1/1/9 
f 10/10/10 1/1/9 19/19/19 
f 21/21/20 22/22/21 26/26/22 25/25/23 
f 25/25/23 26/26/22 27/27/24 24/24/25 
f 24/24/25 27/27/24 28/28/26 23/23/27 
f 23/23/27 28/28/26 29/29/28 20/20/29 
f 11/11/11 32/32/30 33/33/31 15/15/12 
f 32/32/30 31/31/32 34/34/33 33/33/31 
f 31/31/32 30/30/34 35/35/35 34/34/33 
f 30/30/34 20/20/29 36/36/36 35/35/35 
f 29/29/28 36/36/36 20/20/29 
f 2/2/1 3/3/4 41/41/37 40/40/38 
f 40/40/38 41/41/37 42/42/39 39/39/40 
f 39/39/40 42/42/39 43/43/41 38/38/42 
f 38/38/42 43/43/41 44/44/43 37/37/44 
f 45/45/45 48/48/46 50/50/47 49/49/48 
f 48/48/46 47/47/49 51/51/50 50/50/47 
f 47/47/49 46/46/51 52/52/52 51/51/50 
f 46/46/51 37/37/44 53/53/53 52/52/52 
f 44/44/43 53/53/53 37/37/44 
f 21/21/20 57/57/54 58/58/55 22/22/21 
f 57/57/54 56/56/56 59/59/57 58/58/55 
f 56/56/56 55/55/58 60/60/59 59/59/57 
f 55/55/58 54/54/60 61/61/61 60/60/59 
f 45/45/45 49/49/48 65/65/62 64/64/63 
f 64/64/63 65/65/62 66/66/64 63/63/65 
f 63/63/65 66/66/64 67/67/66 62/62/67 
f 62/62/67 67/67/66 68/68/68 54/54/60 
f 68/68/68 61/61/61 54/54/60 
#end 36 faces

#ZOMPROPERTIES_04{
#ZOMPROPERTIES_04 table {Mesh table {SymPlane table {Point vector3d 0 0 0 Normal vector3d 1 0 0 Threshold double 0.01 
#ZOMPROPERTIES_04 Enabled bool false EdgeID int -1 SymEdgeID int -1 UPos double 0.5 LocalMode bool false } RootGroup C
#ZOMPROPERTIES_04 SubMeshGroup {Children table {Tile_0_0 CSubMeshGroup {Children table {} BBoxUV box3d 0 0 0 0 0 0 BBo
#ZOMPROPERTIES_04 x3D box3d 0 0 0 0 0 0 Area3D double 0 AreaUV double 0.330538 IsRoot bool false TopoStable table {Sel
#ZOMPROPERTIES_04 ected bool false Box box3d 0 1 0 1 0 1 U int 0 V int 0 NU int 0 NV int 0 Tiling vector3d 1 1 1 TileR
#ZOMPROPERTIES_04 atioMode string "1:1" Pack table {BoxFrameLocked bool false BoxFrameEdit bool false } } IsTile bool 
#ZOMPROPERTIES_04 true PolyIDs ints { 0 1 2 3 8 7 6 5 4 13 14 15 16 17 12 11 10 9 27 28 29 30 35 34 33 32 31 22 23 24 
#ZOMPROPERTIES_04 25 26 21 20 19 18 } } } BBoxUV box3d 0 0 0 0 0 0 BBox3D box3d 0 0 0 0 0 0 Area3D double 0 AreaUV dou
#ZOMPROPERTIES_04 ble 0 IsRoot bool true TopoStable table {Selected bool false Box box3d 0 1 0 1 0 1 U int 0 V int 0 N
#ZOMPROPERTIES_04 U int 1 NV int 1 Tiling vector3d 1 1 1 TileRatioMode string "1:1" Pack table {Rotate table {Mode int
#ZOMPROPERTIES_04  2 Min double 0 Max double 90 Step double 0 } PaddingSize double 0.0078125 MarginSize double 0.00390
#ZOMPROPERTIES_04 625 Resolution int 256 MapResolution int 2048 Scaling table {TexelDensity double 1024 Mode int 0 } L
#ZOMPROPERTIES_04 ayoutScalingMode int 2 MaxMutations int 1 } } IsTile bool false PolyIDs ints { } } Maps table {Densi
#ZOMPROPERTIES_04 ty table {PrimType string "Polygon" Size int 1 DefaultValue double 1 ScaleType string "Log" MergeMod
#ZOMPROPERTIES_04 e string "Average" MinValue double 0.1 MaxValue double 4 Data doubles { r 36 1 } } Pin table {PrimTy
#ZOMPROPERTIES_04 pe string "Vertex" Size int 1 DefaultValue double 0 ScaleType string "Normalized" MergeMode string "
#ZOMPROPERTIES_04 Max" MinValue double 0 MaxValue double 1 Data doubles { r 68 0 } } Protect table {PrimType string "V
#ZOMPROPERTIES_04 ertex" Size int 1 DefaultValue double 0 ScaleType string "Normalized" MergeMode string "Average" Min
#ZOMPROPERTIES_04 Value double -1 MaxValue double 1 Data doubles { r 68 0 } } } } }
#ZOMPROPERTIES_04}


#ZOMSCENE_01{
#ZOMSCENE_01 CScene {Settings table {AxisSystem table {UpVector string "y" } Unit string "cm" } }
#ZOMSCENE_01}

#begin 0 fatal error vertex (that RizomUV cannot handle)
#end 0 fatal error vertex (that RizomUV cannot handle)

#begin 0 error vertex
#end 0 error vertex
