# This file uses centimeters as units for non-parametric coordinates.

g default
v 1.000000 0.567510 0.577350
v 1.000000 0.000000 0.577350
v 1.000000 0.000000 -0.577350
v 1.000000 0.567512 -0.577350
v 0.000000 0.567512 -1.154700
v 0.000000 0.000000 -1.154700
v -1.000000 0.000000 -0.577350
v -1.000000 0.567512 -0.577350
v 0.950000 0.597380 -0.548482
v 0.000000 0.597380 -1.096965
v -0.950000 0.597380 -0.548482
v -0.950000 0.597380 0.548483
v 0.000000 0.597380 1.096965
v 0.950000 0.597380 0.548483
v 0.000000 0.000000 1.154700
v -1.000000 0.000000 0.577350
v -1.000000 0.567510 0.577350
v 0.000000 0.567510 1.154700
v 0.000000 0.582446 -1.146965
v 0.993301 0.582446 -0.573482
v 0.000000 0.593379 -1.125833
v 0.975000 0.593379 -0.562916
v 0.993301 0.582446 0.573483
v 0.975000 0.593379 0.562916
v 0.000000 0.582446 1.146965
v 0.000000 0.593379 1.125833
v -0.993301 0.582446 0.573483
v -0.975000 0.593379 0.562916
v -0.993301 0.582446 -0.573482
v -0.975000 0.593379 -0.562916
vt 0.671829 0.553624
vt 0.646159 0.553346
vt 0.643631 0.568981
vt 0.669302 0.569259
vt 0.668963 0.600580
vt 0.643292 0.600302
vt 0.645481 0.615988
vt 0.671152 0.616265
vt 0.453935 0.060869
vt 0.479705 0.045991
vt 0.479705 0.016235
vt 0.453935 0.001356
vt 0.428165 0.016235
vt 0.428165 0.045991
vt 0.100189 0.089854
vt 0.100189 0.121176
vt 0.127315 0.136838
vt 0.154441 0.121176
vt 0.154441 0.089854
vt 0.127315 0.074193
vt 0.877989 0.207124
vt 0.852317 0.207124
vt 0.852317 0.238447
vt 0.877989 0.238447
vt 0.342035 0.606065
vt 0.316363 0.606065
vt 0.316363 0.637388
vt 0.342035 0.637388
vt 0.344394 0.590404
vt 0.318721 0.590404
vt 0.669656 0.600482
vt 0.669992 0.569371
vt 0.670196 0.600201
vt 0.670527 0.569664
vt 0.453935 0.061652
vt 0.480383 0.046382
vt 0.344394 0.653049
vt 0.345069 0.652839
vt 0.342727 0.637283
vt 0.426991 0.046669
vt 0.453935 0.062225
vt 0.427487 0.046382
vt 0.342727 0.606170
vt 0.343264 0.636996
vt 0.343264 0.606457
vt 0.427487 0.015843
vt 0.345069 0.590614
vt 0.453935 0.000000
vt 0.426991 0.015556
vt 0.453935 0.000573
vt 0.878680 0.238342
vt 0.878680 0.207229
vt 0.879218 0.238055
vt 0.879218 0.207516
vt 0.480383 0.015843
vt 0.671829 0.616063
vt 0.480880 0.046669
vt 0.480880 0.015556
vn 0.983427 0.181305 0.000000
vn 1.000000 -0.000000 0.000000
vn 1.000000 -0.000000 0.000000
vn 0.983427 0.181305 0.000000
vn -0.491742 0.181297 -0.851658
vn -0.500011 0.000000 -0.866019
vn -0.500011 0.000000 -0.866019
vn -0.491742 0.181297 -0.851658
vn 0.079420 0.995788 -0.045824
vn 0.000000 0.995779 -0.091782
vn -0.079420 0.995788 -0.045824
vn -0.079420 0.995788 0.045824
vn 0.000000 0.995779 0.091782
vn 0.079420 0.995788 0.045824
vn 0.000000 -1.000000 0.000000
vn 0.000000 -1.000000 0.000000
vn 0.000000 -1.000000 0.000000
vn 0.000000 -1.000000 0.000000
vn 0.000000 -1.000000 0.000000
vn 0.000000 -1.000000 0.000000
vn -0.983427 0.181305 0.000000
vn -1.000000 0.000000 0.000000
vn -1.000000 0.000000 0.000000
vn -0.983427 0.181305 0.000000
vn 0.491742 0.181297 0.851658
vn 0.500011 -0.000000 0.866019
vn 0.500011 -0.000000 0.866019
vn 0.491742 0.181297 0.851658
vn -0.491742 0.181297 0.851658
vn -0.500011 0.000000 0.866019
vn -0.500011 0.000000 0.866019
vn -0.491742 0.181297 0.851658
vn 0.491742 0.181297 -0.851658
vn 0.491742 0.181297 -0.851658
vn 0.406946 0.581021 -0.704847
vn 0.406946 0.581021 -0.704847
vn 0.406946 0.581021 -0.704847
vn 0.406946 0.581021 -0.704847
vn -0.000000 0.934092 -0.357034
vn 0.309190 0.934107 -0.178454
vn 0.309190 0.934107 -0.178454
vn -0.000000 0.934092 -0.357034
vn 0.000000 0.995779 -0.091782
vn 0.079420 0.995788 -0.045824
vn 0.983427 0.181305 0.000000
vn 0.983427 0.181305 0.000000
vn 0.813929 0.580964 0.000000
vn 0.813929 0.580964 0.000000
vn 0.813929 0.580964 0.000000
vn 0.813929 0.580964 0.000000
vn 0.309190 0.934107 -0.178454
vn 0.309190 0.934107 0.178454
vn 0.309190 0.934107 0.178454
vn 0.309190 0.934107 -0.178454
vn 0.079420 0.995788 -0.045824
vn 0.079420 0.995788 0.045824
vn 0.491742 0.181297 0.851658
vn 0.491742 0.181297 0.851658
vn 0.406966 0.580966 0.704881
vn 0.406966 0.580966 0.704881
vn 0.406966 0.580966 0.704881
vn 0.406966 0.580966 0.704881
vn 0.309190 0.934107 0.178454
vn 0.000000 0.934092 0.357034
vn 0.000000 0.934092 0.357034
vn 0.309190 0.934107 0.178454
vn 0.079420 0.995788 0.045824
vn 0.000000 0.995779 0.091782
vn -0.491742 0.181297 0.851658
vn -0.491742 0.181297 0.851658
vn -0.406966 0.580966 0.704881
vn -0.406966 0.580966 0.704881
vn -0.406966 0.580966 0.704881
vn -0.406966 0.580966 0.704881
vn 0.000000 0.934092 0.357034
vn -0.309190 0.934107 0.178454
vn -0.309190 0.934107 0.178454
vn 0.000000 0.934092 0.357034
vn 0.000000 0.995779 0.091782
vn -0.079420 0.995788 0.045824
vn -0.983427 0.181305 0.000000
vn -0.983427 0.181305 0.000000
vn -0.813929 0.580964 0.000000
vn -0.813929 0.580964 0.000000
vn -0.813929 0.580964 0.000000
vn -0.813929 0.580964 0.000000
vn -0.309190 0.934107 0.178454
vn -0.309190 0.934107 -0.178454
vn -0.309190 0.934107 -0.178454
vn -0.309190 0.934107 0.178454
vn -0.079420 0.995788 0.045824
vn -0.079420 0.995788 -0.045824
vn -0.491742 0.181297 -0.851658
vn -0.491742 0.181297 -0.851658
vn -0.406946 0.581021 -0.704847
vn -0.406946 0.581021 -0.704847
vn -0.406946 0.581021 -0.704847
vn -0.406946 0.581021 -0.704847
vn -0.309190 0.934107 -0.178454
vn -0.000000 0.934092 -0.357034
vn -0.000000 0.934092 -0.357034
vn -0.309190 0.934107 -0.178454
vn -0.079420 0.995788 -0.045824
vn 0.000000 0.995779 -0.091782
vn 0.491742 0.181297 -0.851658
vn 0.500011 0.000000 -0.866019
vn 0.500011 0.000000 -0.866019
vn 0.491742 0.181297 -0.851658
s off
g Hex:Mesh
f 1/1/1 2/2/2 3/3/3 4/4/4
f 5/5/5 6/6/6 7/7/7 8/8/8
f 9/9/9 10/10/10 11/11/11 12/12/12 13/13/13 14/14/14
f 6/15/15 3/16/16 2/17/17 15/18/18 16/19/19 7/20/20
f 8/21/21 7/22/22 16/23/23 17/24/24
f 18/25/25 15/26/26 2/27/27 1/28/28
f 17/29/29 16/30/30 15/26/31 18/25/32
f 4/4/33 5/5/34 19/31/35 20/32/36
f 20/32/37 19/31/38 21/33/39 22/34/40
f 22/35/41 21/36/42 10/10/43 9/9/44
f 1/28/45 4/37/46 20/38/47 23/39/48
f 23/40/49 20/41/50 22/35/51 24/42/52
f 24/42/53 22/35/54 9/9/55 14/14/56
f 18/25/57 1/28/58 23/39/59 25/43/60
f 25/43/61 23/39/62 24/44/63 26/45/64
f 26/46/65 24/42/66 14/14/67 13/13/68
f 17/29/69 18/25/70 25/43/71 27/47/72
f 27/48/73 25/49/74 26/46/75 28/50/76
f 28/50/77 26/46/78 13/13/79 12/12/80
f 8/21/81 17/24/82 27/51/83 29/52/84
f 29/52/85 27/51/86 28/53/87 30/54/88
f 30/55/89 28/50/90 12/12/91 11/11/92
f 5/5/93 8/8/94 29/56/95 19/31/96
f 19/57/97 29/58/98 30/55/99 21/36/100
f 21/36/101 30/55/102 11/11/103 10/10/104
f 4/4/105 3/3/106 6/6/107 5/5/108
