# This file uses centimeters as units for non-parametric coordinates.

g default
v -0.415616 -0.207829 0.205738
v -0.415616 0.207829 0.205738
v -0.415616 0.207829 -0.209920
v -0.415616 -0.207829 -0.209920
v -0.434105 -0.409110 0.247934
v -0.434105 -0.409110 -0.252116
v -0.434105 -0.250025 0.407019
v -0.434105 0.250025 0.407019
v -0.434105 0.409110 0.247934
v -0.434105 0.409110 -0.252116
v -0.434105 0.250025 -0.411201
v -0.434105 -0.250025 -0.411201
v -0.403485 -0.378490 0.376399
v -0.403485 0.378490 0.376399
v -0.403485 0.378490 -0.380582
v -0.403485 -0.378490 -0.380582
vt 0.368476 0.006583
vt 0.131524 0.006572
vt 0.326319 0.006249
vt 0.312506 0.062494
vt 0.368751 0.191712
vt 0.312506 0.187506
vt 0.173681 0.243751
vt 0.187494 0.187506
vt 0.131249 0.048681
vt 0.368751 0.058288
vt 0.326319 0.243751
vt 0.368476 0.243417
vt 0.131249 0.201319
vt 0.131524 0.243428
vt 0.173681 0.006249
vt 0.187494 0.062494
vn -0.999512 0.022091 0.022092
vn -0.999512 0.022091 -0.022092
vn -0.999512 -0.022091 -0.022092
vn -0.999512 -0.022091 0.022092
vn -0.998147 0.060211 0.008781
vn -0.998147 0.060211 -0.008781
vn -0.998147 -0.008781 -0.060211
vn -0.998147 0.008781 -0.060211
vn -0.998147 -0.060211 0.008781
vn -0.998147 -0.060211 -0.008781
vn -0.998147 0.008781 0.060211
vn -0.998147 -0.008781 0.060211
vn -0.998739 -0.035496 0.035496
vn -0.998739 0.035496 0.035496
vn -0.998739 0.035496 -0.035496
vn -0.998739 -0.035496 -0.035496
s 1
g pCube1
f 4/16/1 1/4/2 2/6/3 3/8/4
f 5/3/5 1/4/2 4/16/1 6/15/6
f 1/4/2 7/10/7 8/5/8 2/6/3
f 2/6/3 9/11/9 10/7/10 3/8/4
f 3/8/4 11/13/11 12/9/12 4/16/1
f 7/10/7 1/4/2 5/3/5 13/1/13
f 9/11/9 2/6/3 8/5/8 14/12/14
f 11/13/11 3/8/4 10/7/10 15/14/15
f 6/15/6 4/16/1 12/9/12 16/2/16
