# This file uses centimeters as units for non-parametric coordinates.

g default
v -0.250025 0.500000 0.250025
v 0.250025 0.500000 0.250025
v -0.250025 0.500000 -0.250025
v 0.250025 0.500000 -0.250025
v -0.409110 0.434105 0.250025
v -0.434105 0.409110 0.250025
v -0.434105 0.409110 -0.250025
v -0.409110 0.434105 -0.250025
v -0.250025 0.434105 0.409110
v 0.250025 0.434105 0.409110
v 0.409110 0.434105 0.250025
v 0.409110 0.434105 -0.250025
v -0.250025 0.434105 -0.409110
v -0.250025 0.409110 -0.434105
v 0.250025 0.409110 -0.434105
v 0.250025 0.434105 -0.409110
v -0.378490 0.403485 0.378490
v -0.403485 0.378490 0.378490
v 0.378490 0.403485 0.378490
v -0.378490 0.403485 -0.378490
v -0.378490 0.378490 -0.403485
v -0.403485 0.378490 -0.378490
v 0.378490 0.403485 -0.378490
v 0.378490 0.378490 -0.403485
vt 0.375000 0.296031
vt 0.375000 0.256559
vt 0.327853 0.250000
vt 0.172147 0.250000
vt 0.171031 0.250000
vt 0.131559 0.250000
vt 0.381583 0.256524
vt 0.375000 0.506559
vt 0.381524 0.506572
vt 0.381583 0.493476
vt 0.618417 0.493476
vt 0.173681 0.243751
vt 0.381249 0.298681
vt 0.437494 0.312494
vt 0.566712 0.256249
vt 0.562506 0.312494
vt 0.618751 0.451319
vt 0.566712 0.506249
vt 0.433288 0.493751
vt 0.562506 0.437506
vt 0.433288 0.256249
vt 0.326319 0.243751
vt 0.618751 0.298681
vt 0.618417 0.256524
vt 0.433288 0.506249
vt 0.131524 0.243428
vt 0.381249 0.451319
vt 0.437494 0.437506
vt 0.618417 0.506524
vt 0.566712 0.493751
vn -0.092515 0.991404 0.092515
vn 0.092515 0.991404 0.092515
vn 0.092515 0.991404 -0.092515
vn -0.092515 0.991404 -0.092515
vn -0.437920 0.896466 0.067636
vn -0.705434 0.705435 0.068734
vn -0.670064 0.670065 0.319418
vn -0.383719 0.861220 0.333257
vn -0.437920 0.896466 -0.067636
vn -0.705434 0.705435 -0.068734
vn -0.381000 0.842424 -0.381000
vn -0.665389 0.665390 -0.338397
vn -0.067636 0.896466 -0.437920
vn -0.068734 0.705434 -0.705435
vn -0.338397 0.665389 -0.665390
vn 0.067636 0.896466 -0.437920
vn 0.068734 0.705434 -0.705435
vn 0.333257 0.861220 -0.383719
vn 0.319418 0.670064 -0.670065
vn -0.066486 0.924230 0.376002
vn 0.066486 0.924230 0.376002
vn 0.376002 0.924230 0.066487
vn 0.376002 0.924230 -0.066487
vn 0.331739 0.883119 0.331739
s 1
g pCube2
f 1/14/1 2/16/2 4/20/3 3/28/4
f 5/13/5 6/1/6 18/2/7 17/7/8
f 6/22/6 5/3/5 8/4/9 7/12/10
f 7/12/10 8/5/9 20/6/11 22/26/12
f 13/19/13 14/25/14 21/9/15 20/10/11
f 14/25/14 13/19/13 16/30/16 15/18/17
f 15/18/17 16/30/16 23/11/18 24/29/19
f 5/13/5 1/14/1 3/28/4 8/27/9
f 1/14/1 9/21/20 10/15/21 2/16/2
f 2/16/2 11/23/22 12/17/23 4/20/3
f 13/19/13 3/28/4 4/20/3 16/30/16
f 9/21/20 1/14/1 5/13/5 17/7/8
f 11/23/22 2/16/2 10/15/21 19/24/24
f 8/27/9 3/28/4 13/19/13 20/10/11
f 16/30/16 4/20/3 12/17/23 23/11/18
f 20/10/11 21/9/15 22/8/12
